# xmcd
#
# Track frame offsets:
#  150
#  21173
#  37913
#  66614
#  87190
#  107638
#  127304
#  141106
#  163903
#  183229
#  215097
#  228525
#
# Disc length: 3278 seconds
#
# Revision: 0
# Processed by: cddbd v1.5.1PL2 Copyright (c) Steve Scherf et al.
# Submitted via: Collectorz.com_Music_Collector 6.10
#
DISCID=b20ccc0c
DTITLE=Little Boogie Boy Bluesband Featuring Nick Holt - We Do It For The Blues
DYEAR=2004
DGENRE=Blues
TTITLE0=Fannie Mae
TTITLE1=Find Yourself Another Girl
TTITLE2=Gambler´s Blues
TTITLE3=44 Blues
TTITLE4=Stand By Me
TTITLE5=Hey Little Boogie Boy!!
TTITLE6=Nick´s Mad At Me
TTITLE7=Walk Away With Me
TTITLE8=Hole In The Wall
TTITLE9=Sittin´ Here Thinking
TTITLE10=I´m A-tellin´ you
TTITLE11=Handyman
EXTD=
EXTT0=
EXTT1=
EXTT2=
EXTT3=
EXTT4=
EXTT5=
EXTT6=
EXTT7=
EXTT8=
EXTT9=
EXTT10=
EXTT11=
PLAYORDER=
